<?xml version="1.0" standalone="no"?>
<!DOCTYPE svg PUBLIC "-//W3C//DTD SVG 20010904//EN"
 "http://www.w3.org/TR/2001/REC-SVG-20010904/DTD/svg10.dtd">
<svg version="1.0" xmlns="http://www.w3.org/2000/svg"
 width="256.000000pt" height="256.000000pt" viewBox="0 0 256.000000 256.000000"
 preserveAspectRatio="xMidYMid meet">
<metadata>
Created by potrace 1.16, written by Peter Selinger 2001-2019
</metadata>
<g transform="translate(0.000000,256.000000) scale(0.100000,-0.100000)"
fill="#000000" stroke="none">
<path d="M715 2528 c-11 -7 -39 -11 -62 -9 -23 1 -54 -4 -71 -13 -34 -17 -87
-76 -97 -105 -3 -11 -21 -29 -40 -41 -53 -33 -145 -171 -145 -217 0 -10 -16
-43 -35 -73 -45 -70 -72 -143 -87 -233 -6 -40 -22 -95 -35 -122 -41 -89 -49
-151 -31 -251 14 -76 14 -94 2 -134 -29 -95 -15 -174 42 -243 15 -18 24 -41
24 -64 0 -73 71 -150 130 -142 15 3 32 -4 47 -19 17 -17 33 -22 75 -22 32 0
62 6 76 16 12 8 22 13 22 10 0 -18 -43 -70 -78 -96 -41 -30 -56 -70 -32 -85 6
-3 10 -21 10 -39 0 -43 16 -55 81 -63 30 -3 59 -9 64 -14 33 -25 153 -18 273
17 21 6 22 4 22 -52 l-1 -59 -89 -42 -90 -42 5 -63 c3 -34 9 -66 13 -69 8 -7
140 -54 457 -165 l220 -77 139 2 138 2 204 135 c112 74 212 137 221 141 10 3
78 47 150 97 170 116 173 138 24 152 -40 4 -70 10 -69 14 2 4 23 23 47 41 58
45 69 62 51 85 -8 9 -13 27 -12 40 5 33 -29 50 -141 74 -236 48 -372 94 -360
120 3 8 7 31 9 50 1 19 11 62 23 94 12 33 21 74 21 92 0 44 -28 114 -46 114
-9 0 -14 12 -14 34 0 72 -52 152 -113 175 -41 16 -42 15 -44 -29 -1 -33 2 -40
18 -40 14 0 19 7 19 26 0 14 4 23 10 19 6 -3 10 -21 10 -39 0 -25 5 -35 20
-39 11 -3 20 -10 20 -17 0 -6 -4 -9 -9 -6 -5 4 -11 1 -13 -6 -3 -7 -12 -9 -22
-5 -10 4 -16 13 -13 22 4 9 1 12 -7 9 -7 -3 -18 2 -25 10 -7 8 -20 12 -28 9
-13 -5 -15 -2 -8 13 4 10 11 36 15 56 8 42 -2 58 -37 58 -28 0 -188 82 -274
141 -35 24 -103 81 -151 127 l-88 85 0 61 c0 34 -7 83 -15 110 -9 29 -15 89
-15 145 0 114 -18 164 -75 206 -20 16 -44 46 -52 67 -22 54 -56 78 -112 78
-25 0 -55 -6 -66 -12z m114 -28 c10 -5 22 -17 25 -26 5 -14 4 -15 -9 -4 -9 7
-15 8 -15 2 0 -6 -3 -17 -6 -26 -4 -10 2 -17 20 -22 18 -4 29 -17 37 -42 7
-21 19 -47 26 -59 13 -20 13 -24 -1 -38 -13 -13 -16 -13 -16 -3 0 23 -41 62
-50 48 -6 -9 -11 -6 -20 9 -6 12 -25 30 -42 41 -30 18 -30 18 -9 29 12 7 21
18 21 25 0 8 7 19 15 26 16 13 20 40 7 40 -5 0 -17 -16 -28 -35 -10 -19 -22
-35 -26 -35 -14 0 -20 22 -8 30 8 5 7 9 -5 14 -16 6 -17 1 -11 -36 7 -42 6
-42 -10 -20 -10 15 -14 32 -10 48 5 17 3 23 -4 19 -5 -3 -10 -4 -10 0 0 20 98
32 129 15z m-155 -22 c9 -12 16 -18 17 -13 2 18 17 -39 18 -67 1 -22 -3 -26
-19 -23 -11 2 -20 -1 -20 -6 0 -6 -8 -5 -21 1 -17 10 -18 14 -7 23 7 7 11 11
9 10 -2 -2 -10 2 -17 8 -19 16 -34 2 -34 -31 0 -21 -6 -29 -24 -34 -18 -4 -29
-19 -42 -56 -16 -44 -25 -54 -61 -70 -45 -20 -103 -95 -103 -133 0 -19 -1 -18
-20 3 -11 13 -23 21 -26 18 -9 -10 26 -69 36 -63 23 14 8 -28 -17 -49 -32 -27
-49 -31 -45 -11 1 8 -7 12 -23 11 -18 -1 -28 -9 -35 -30 -12 -36 -13 -66 -1
-66 11 0 24 48 16 60 -10 16 16 23 31 8 12 -12 11 -19 -6 -53 -11 -22 -20 -48
-20 -58 0 -23 -19 -59 -38 -73 -20 -15 -8 -44 17 -44 11 0 23 -4 26 -10 3 -5
1 -10 -6 -10 -28 0 4 -13 63 -26 83 -18 91 -16 43 7 -53 24 -28 24 110 -1 122
-22 144 -24 99 -7 -57 22 -132 90 -164 149 -28 52 -29 57 -14 73 16 16 26 16
69 0 13 -5 7 6 -20 35 l-40 42 34 -17 c18 -9 63 -37 98 -61 36 -25 98 -63 138
-85 78 -43 119 -77 77 -65 -60 17 -62 14 -9 -14 53 -28 57 -33 57 -65 0 -33
-2 -35 -32 -35 -18 0 -55 7 -82 15 -69 21 -89 18 -41 -5 l40 -20 -70 4 -70 4
60 -14 c60 -15 133 -35 212 -60 27 -8 45 -9 49 -3 3 5 13 7 23 4 9 -3 26 1 37
9 18 14 18 15 -5 9 -21 -5 -23 -3 -16 18 9 29 22 45 31 36 4 -3 -1 -13 -10
-22 -9 -9 -16 -19 -16 -23 0 -3 5 -1 12 6 18 18 28 14 28 -11 0 -12 -8 -27
-19 -34 -10 -6 -21 -22 -24 -35 l-6 -23 20 24 c24 29 35 22 21 -16 -6 -15 -11
-21 -11 -13 -3 35 -21 -16 -21 -57 0 -24 -4 -43 -9 -43 -5 0 -9 6 -8 13 1 33
-4 47 -18 47 -8 0 -15 -5 -15 -12 0 -6 -3 -8 -7 -4 -4 3 -13 -4 -21 -16 l-13
-23 6 25 c4 14 8 42 9 63 3 34 1 37 -18 31 -11 -3 -25 -10 -30 -15 -6 -5 -35
-9 -65 -10 l-56 -1 38 -10 c20 -6 37 -13 37 -18 0 -4 -57 -10 -127 -14 -71 -4
-170 -11 -221 -18 -91 -10 -121 -6 -92 13 11 7 4 9 -25 7 -30 -2 -40 -7 -40
-20 0 -9 -4 -20 -8 -25 -9 -8 -14 -10 -47 -12 -11 0 -20 -6 -20 -11 0 -6 10
-8 24 -4 16 4 25 1 30 -11 4 -12 2 -16 -8 -12 -15 6 -15 5 -1 -80 6 -31 7 -32
28 -19 12 7 65 26 117 40 52 15 117 40 146 56 44 26 58 29 97 24 34 -5 53 -2
71 10 32 20 36 20 36 -3 0 -14 -14 -24 -52 -37 -48 -16 -50 -18 -28 -24 l25
-7 -25 -11 c-114 -50 -261 -101 -275 -96 -10 4 -28 -2 -45 -14 -24 -18 -64
-23 -90 -12 -3 1 -20 1 -37 0 -48 -2 -59 29 -43 112 7 34 13 76 13 91 0 20 2
24 8 15 6 -8 9 0 9 25 0 25 -4 36 -11 31 -7 -4 -10 4 -8 22 1 16 -2 37 -6 47
-12 29 0 123 20 153 11 18 20 24 23 16 3 -10 7 -10 18 -1 10 8 14 8 14 0 0 -6
7 -11 15 -11 8 0 15 4 15 9 0 12 -29 41 -41 41 -14 0 -11 77 6 148 14 60 49
142 61 142 3 0 3 -4 0 -9 -3 -4 10 -1 29 8 24 11 33 21 28 31 -24 60 10 161
75 221 20 19 31 27 24 18 -10 -14 -10 -18 3 -23 9 -3 14 -2 11 3 -3 5 1 12 10
15 8 3 12 2 9 -4 -3 -6 -1 -10 5 -10 6 0 8 10 4 26 -5 20 -3 25 7 22 8 -3 14
-15 13 -27 0 -11 5 -21 12 -21 10 0 11 6 4 26 -6 14 -10 37 -9 52 0 23 2 21
13 -13 13 -46 25 -37 32 26 5 40 -2 48 -25 27 -11 -11 -12 -9 -3 7 15 28 63
72 92 84 39 15 58 13 74 -11z m140 -342 c47 -76 53 -92 36 -98 -12 -4 60 -100
80 -106 13 -5 13 -3 1 11 -9 11 -10 17 -2 17 17 0 13 27 -8 47 -10 10 -24 28
-30 41 -12 22 -11 23 9 12 11 -6 25 -22 30 -35 13 -35 28 -39 50 -13 22 26 26
18 8 -13 -10 -17 -10 -23 0 -26 6 -3 12 -12 12 -21 0 -13 3 -12 15 4 14 18 14
18 15 -9 0 -16 -5 -60 -12 -99 -10 -62 -13 -68 -25 -53 -7 10 -15 16 -18 13
-8 -7 5 -38 16 -38 5 0 9 -7 9 -15 0 -19 -32 -85 -41 -85 -4 0 -1 13 7 29 10
20 12 35 5 52 l-10 24 -7 -23 c-4 -13 -12 -21 -20 -18 -7 3 -14 -4 -17 -17 -4
-18 -5 -17 -6 6 -1 21 -6 27 -25 27 -31 0 -151 61 -199 101 -49 40 -77 97 -77
154 0 50 4 53 34 28 11 -10 5 2 -15 27 -80 101 -77 129 4 38 31 -35 96 -99
146 -143 49 -44 88 -81 86 -83 -2 -2 -14 1 -27 8 -17 8 -14 3 10 -18 18 -16
35 -38 36 -48 5 -33 26 -27 27 8 0 18 3 27 6 19 4 -9 10 -3 19 17 9 22 18 30
28 26 22 -9 20 -25 -4 -31 -14 -4 -20 -14 -20 -32 1 -26 1 -26 18 -6 9 12 25
24 35 28 20 7 22 35 5 72 -8 18 -14 22 -20 13 -5 -9 -8 -6 -8 10 0 13 -4 20
-10 17 -5 -3 -10 -15 -10 -26 0 -13 -4 -18 -12 -13 -7 5 -9 2 -5 -9 9 -25 -45
-17 -58 9 -6 11 -33 47 -61 80 -61 70 -94 132 -94 175 0 24 4 30 15 25 9 -3
15 0 15 10 0 25 15 8 64 -70z m62 -738 c4 -6 2 -14 -4 -16 -14 -4 -16 -32 -2
-32 14 0 -4 -43 -41 -96 -29 -43 -56 -51 -46 -13 9 34 -11 31 -50 -8 -36 -36
-58 -94 -30 -76 7 4 19 6 29 5 9 -2 19 2 23 7 4 7 0 8 -11 4 -12 -4 -15 -3
-10 5 4 7 14 12 23 12 13 0 13 3 3 15 -7 8 -8 15 -2 15 19 0 34 -28 23 -47 -5
-10 -15 -32 -21 -50 -7 -18 -19 -38 -28 -45 -13 -11 -15 -10 -10 10 4 12 2 22
-3 22 -5 0 -9 -8 -9 -18 0 -10 -3 -22 -7 -26 -5 -4 -8 -18 -8 -29 0 -18 -7
-23 -34 -25 -24 -3 -31 0 -25 9 5 9 1 11 -14 7 -32 -9 -27 1 7 13 23 8 27 15
23 34 l-4 24 -35 -26 -35 -27 17 40 c9 21 19 45 22 52 9 21 25 13 18 -10 -5
-20 -2 -19 24 9 19 20 28 39 24 48 -6 17 42 75 63 75 15 0 39 28 31 37 -4 3
-13 0 -21 -6 -8 -7 -19 -10 -24 -7 -4 2 -30 -6 -58 -19 -27 -13 -41 -24 -31
-24 30 -2 19 -16 -59 -71 -43 -30 -86 -61 -96 -69 -15 -11 -21 -12 -27 -3 -5
8 -18 1 -41 -23 -19 -19 -40 -35 -47 -35 -31 0 -7 38 80 126 98 99 161 135
259 150 24 3 53 13 65 20 26 16 37 18 28 4 -3 -5 -2 -10 3 -10 15 0 44 50 38
66 -7 17 20 19 30 2z m659 -30 c11 -3 40 -9 65 -13 25 -4 48 -12 51 -17 3 -5
-1 -29 -9 -54 -11 -35 -12 -56 -4 -97 6 -28 7 -55 4 -59 -4 -4 -46 -20 -93
-37 -47 -17 -105 -39 -130 -50 l-44 -19 55 4 c66 6 196 44 181 53 -6 4 5 7 24
8 19 1 35 -3 35 -9 0 -5 5 -6 11 -3 7 5 5 13 -5 24 -9 10 -13 21 -9 24 10 11
83 8 83 -3 0 -25 -62 -170 -71 -165 -5 4 -2 17 7 31 l16 24 -48 1 -49 0 43 14
c46 14 72 31 72 47 0 7 -5 6 -13 0 -7 -6 -22 -11 -32 -10 -29 1 -98 -19 -195
-56 -114 -45 -166 -60 -178 -52 -6 3 -22 2 -36 -4 -27 -10 -30 -8 -72 42 -8 9
-3 18 17 35 15 13 33 23 40 23 20 0 48 -30 42 -46 -7 -19 37 -19 63 1 18 14
17 14 -15 15 -23 0 -39 7 -53 25 -13 16 -29 25 -48 25 -20 0 -35 -8 -46 -25
l-16 -25 -205 0 -204 0 -47 -32 c-68 -48 -172 -97 -159 -76 6 9 23 19 37 22
15 2 50 23 78 46 43 33 60 57 99 138 26 53 59 114 74 135 15 21 29 42 31 47 4
11 160 47 278 64 83 12 335 14 375 4z m-1318 -204 c2 -7 13 -11 23 -9 16 3 18
-1 13 -26 -6 -31 12 -42 20 -11 3 11 5 9 6 -8 1 -30 45 -85 61 -75 5 3 13 -1
16 -10 4 -10 14 -15 25 -12 11 3 19 1 19 -4 0 -4 7 -6 15 -3 8 4 15 1 15 -5 0
-10 -14 -15 -32 -12 -16 2 -7 -16 17 -39 14 -13 25 -35 25 -49 0 -19 -3 -22
-12 -13 -9 9 -14 7 -24 -5 -10 -14 -15 -15 -27 -4 -9 7 -13 19 -10 26 12 32
-36 123 -58 109 -5 -3 1 -14 13 -26 14 -12 17 -18 7 -15 -23 7 -18 -35 6 -50
18 -11 16 -12 -20 -13 -22 0 -51 7 -63 16 -23 16 -52 64 -52 86 1 7 7 0 15
-17 14 -32 14 -31 19 28 1 6 -7 11 -16 11 -10 -1 -18 4 -18 12 0 8 7 14 15 14
19 0 19 14 0 30 -11 9 -13 16 -5 24 5 5 10 14 10 19 0 5 -9 -1 -19 -14 -11
-14 -23 -20 -28 -15 -4 5 -2 11 5 13 20 7 14 22 -8 18 -25 -5 -35 11 -18 29
16 17 58 18 65 0z m903 -381 c53 -26 199 -53 285 -53 86 0 232 27 285 53 25
12 50 33 56 45 13 27 29 13 19 -17 -8 -25 -36 -43 -115 -72 -59 -22 -80 -24
-240 -24 -141 0 -186 4 -235 18 -79 25 -125 60 -125 95 l0 27 13 -25 c6 -14
32 -35 57 -47z"/>
</g>
</svg>
